<svg xmlns="http://www.w3.org/2000/svg" xmlns:xlink="http://www.w3.org/1999/xlink" id="Capa_1" x="0px" y="0px" viewBox="0 0 551.2 228" style="enable-background:new 0 0 551.2 228;" xml:space="preserve"><style type="text/css">	.st0{fill:#009A84;}	.st1{fill:#5B524D;}	.st2{fill:#5D4D59;}	.st3{fill:#F3774D;}	.st4{fill:#CBD526;}	.st5{opacity:0.8;fill:#FFFFFF;}	.st6{fill:#FFFFFF;}	.st7{opacity:6.000000e-02;fill:url(#SVGID_1_);}	.st8{opacity:6.000000e-02;fill:url(#SVGID_2_);}	.st9{opacity:6.000000e-02;fill:url(#SVGID_3_);}	.st10{opacity:6.000000e-02;fill:url(#SVGID_4_);}	.st11{fill:#009C85;}</style><g>	<path class="st6" d="M285.1,41.9c5.9,8.1,9.2,17.8,9.2,28s-3.2,19.9-9.2,28c-5.9-8.1-9.2-17.8-9.2-28S279.2,50,285.1,41.9   M285.1,31.7L285.1,31.7L285.1,31.7L285.1,31.7z M285.1,31.7c-21.1,21.1-21.1,55.3,0,76.4C306.3,87,306.3,52.8,285.1,31.7  L285.1,31.7z M285.1,108.1L285.1,108.1L285.1,108.1L285.1,108.1z"></path>	<path class="st4" d="M339.2,54.1c-14.9,0-28.4,6-38.2,15.8c0,13.8-5.3,27.7-15.8,38.2l0,0C315,108.1,339.2,83.9,339.2,54.1  L339.2,54.1L339.2,54.1z"></path>	<path class="st4" d="M177.1,31.7L177.1,31.7c-10.6,10.6-15.8,24.4-15.8,38.2c9.8,9.8,15.8,23.3,15.8,38.2v0l0,0l0,0v0v0  C198.2,87,198.2,52.8,177.1,31.7L177.1,31.7z"></path>	<path class="st6" d="M130.2,61.3c20.4,3.1,36.5,19.3,39.6,39.6C149.5,97.8,133.4,81.6,130.2,61.3 M123,54.1L123,54.1  c0,29.8,24.2,54,54,54v0C177.1,78.3,152.9,54.1,123,54.1L123,54.1z"></path>	<path class="st6" d="M232.9,28.7l53.4,88.9c0.9,1.4-0.2,3.2-1.8,3.2H177.7c-1.7,0-2.7-1.8-1.8-3.2l53.4-88.9  C230.1,27.3,232.1,27.3,232.9,28.7z M153.8,134.4h154.6c1.7,0,2.7-1.8,1.8-3.2L232.9,2.4c-0.8-1.4-2.8-1.4-3.7,0L152,131.2  C151.1,132.6,152.2,134.4,153.8,134.4z"></path>	<path class="st6" d="M247.7,80.4l-16.6,27.7l-16.6-27.7H247.7 M271.6,66.9h-81.1l40.5,67.6L271.6,66.9L271.6,66.9z"></path>	<g>		<g>			<path class="st6" d="M54,130.4c6.1,0,11.1,0.8,15,2.5c3.9,1.7,7.4,3.7,10.3,6c1,0.8,1.8,1.2,2.6,1.2c1.7,0,2.7-2.6,3.3-7.8h3    c-0.2,3.5-0.3,7.7-0.4,12.8c-0.1,5-0.1,11.7-0.1,19.9h-3c-0.6-6.3-1.7-11.5-3.2-15.8c-1.5-4.2-4.5-7.8-8.8-10.8    c-1.8-1.2-4-2.2-6.4-2.9c-2.4-0.7-4.8-1-7.1-1c-5.1,0-9.2,1.4-12.6,4.1c-3.3,2.7-6,6.3-7.9,10.7c-2,4.4-3.4,9.2-4.2,14.4    c-0.8,5.2-1.2,10.2-1.2,15.1c0,15.7,1.9,27.2,5.8,34.4c3.8,7.2,8.9,10.9,15.3,10.9c1.4,0,2.6-0.1,3.7-0.4c1-0.3,2-0.7,2.7-1.2    c1-0.7,1.7-1.6,2.1-2.6c0.4-1,0.7-2.4,0.7-3.9v-13.1c0-4.3-0.3-7.5-1-9.5c-0.7-2.1-1.9-3.5-3.9-4.3c-1.9-0.8-4.7-1.2-8.4-1.3    v-2.6c2,0.1,4.4,0.2,7.3,0.2c2.9,0,5.9,0.1,9,0.1c3.1,0,6,0.1,8.6,0.1c4.2,0,8,0,11.6-0.1c3.5-0.1,6.4-0.2,8.6-0.3v2.6    c-1.5,0.1-2.6,0.4-3.4,0.9c-0.8,0.5-1.3,1.6-1.6,3.1c-0.3,1.6-0.4,4-0.4,7.2v25.9h-2.6c-0.1-1.5-0.4-3.1-1-4.8    c-0.6-1.7-1.6-2.6-3-2.6c-0.7,0-1.7,0.2-2.9,0.5c-1.3,0.3-3.2,1.2-6,2.5c-3.4,1.7-7,3.1-10.8,4.4c-3.8,1.3-7.6,1.9-11.3,1.9    c-10.9,0-20-1.9-27.3-5.6c-7.3-3.7-12.8-9.2-16.4-16.2c-3.6-7.1-5.4-15.6-5.4-25.5c0-9.8,2.2-18.3,6.5-25.6    c4.3-7.3,10.3-13,17.9-17.1C35.3,132.5,44.1,130.4,54,130.4z"></path>			<path class="st6" d="M147.9,155.1c3.1,0,5.6,0.7,7.3,2c1.7,1.4,3,3.1,3.7,5.1c0.7,2,1,4.1,1,6.1c0,3.9-1.1,7-3.3,9.4    c-2.2,2.3-5.1,3.5-8.7,3.5c-3.8,0-6.7-0.9-8.7-2.6c-2-1.7-2.9-4-2.9-6.8c0-3,0.6-5.4,1.9-7.3c1.3-1.9,2.9-3.5,4.8-4.8    c-1.6,0-3,0.3-4.2,0.9c-1,0.4-2,1-3,1.8c-1,0.8-1.8,1.7-2.5,2.7c-0.7,1-1.2,2.1-1.6,3.3c-0.4,1.2-0.6,2.5-0.6,3.8v39.2    c0,4.2,0.9,7,2.6,8.5c1.7,1.5,4.6,2.2,8.6,2.2v2.7c-2-0.1-5-0.2-9-0.3c-4-0.1-8-0.2-12.2-0.2c-3.9,0-7.9,0.1-11.9,0.2    c-4,0.1-7,0.2-9,0.3v-2.7c2.7,0,4.6-0.7,5.7-2c1.1-1.3,1.6-3.8,1.6-7.5v-41.5c0-3.9-0.5-6.8-1.6-8.7c-1-1.9-3-2.8-5.8-2.8V157    c2.8,0.3,5.5,0.4,8.1,0.4c4.4,0,8.4-0.2,12.2-0.5c3.8-0.3,7.3-0.8,10.5-1.4v9.4c1.1-2.3,2.5-4.1,4.2-5.6c1.7-1.4,3.6-2.5,5.7-3.2    C143.1,155.5,145.4,155.1,147.9,155.1z"></path>			<path class="st6" d="M232,155.5v55.1c0,3.9,0.5,6.8,1.6,8.7c1.1,1.9,3,2.8,5.7,2.8v2.7c-2.7-0.3-5.4-0.4-8.1-0.4    c-4.4,0-8.4,0.1-12.2,0.4c-3.8,0.3-7.3,0.7-10.6,1.4v-9.4c-2.1,3.5-4.9,6-8.4,7.5c-3.5,1.5-7.7,2.3-12.4,2.3    c-4,0-7.2-0.5-9.5-1.5c-2.3-1-4.1-2.2-5.3-3.7c-1.3-1.6-2.3-3.7-2.9-6.3c-0.6-2.6-0.9-6.1-0.9-10.6v-33.4c0-3.9-0.5-6.8-1.6-8.7    c-1-1.9-3-2.8-5.8-2.8V157c2.8,0.3,5.5,0.4,8.1,0.4c4.4,0,8.4-0.2,12.2-0.5c3.8-0.3,7.3-0.8,10.5-1.4v56.1c0,1.8,0.2,3.4,0.7,4.6    c0.4,1.2,1.1,2.1,2.1,2.7c1,0.6,2.2,0.9,3.7,0.9c1.7,0,3.2-0.4,4.6-1.2c1.4-0.8,2.6-1.9,3.5-3.3c0.9-1.4,1.4-3.1,1.4-4.9v-39.2    c0-3.9-0.5-6.8-1.6-8.7c-1-1.9-3-2.8-5.8-2.8V157c2.8,0.3,5.5,0.4,8.1,0.4c4.4,0,8.4-0.2,12.2-0.5    C225.3,156.6,228.8,156.1,232,155.5z"></path>			<path class="st6" d="M271.9,155.1c3.8,0,7.2,0.4,10.1,1.2c2.9,0.8,5,1.6,6.3,2.3c3.1,1.8,4.9,0.7,5.6-3.4h2.6    c-0.2,2.5-0.3,5.6-0.4,9.2c-0.1,3.6-0.1,8.4-0.1,14.3h-2.6c-0.3-3.2-1.1-6.4-2.3-9.5c-1.2-3.1-2.9-5.8-5.1-7.8    c-2.2-2.1-5.1-3.1-8.7-3.1c-2.2,0-4,0.7-5.5,2c-1.5,1.3-2.2,3.1-2.2,5.4c0,2.6,0.8,4.9,2.4,7c1.6,2,3.6,4,6,5.9    c2.4,1.9,4.9,3.9,7.3,6c2.7,2.2,5.1,4.3,7.2,6.4c2.1,2.1,3.8,4.4,5,6.9c1.3,2.5,1.9,5.4,1.9,8.8c0,3.9-1.2,7.4-3.6,10.5    c-2.4,3.1-5.6,5.4-9.5,7.1c-4,1.7-8.4,2.6-13.3,2.6c-3.1,0-5.7-0.3-8-1c-2.3-0.7-4.1-1.4-5.5-2.3c-1.4-0.7-2.6-1.2-3.6-1.6    c-1-0.4-2-0.6-2.9-0.6c-0.9,0-1.6,0.5-2.2,1.4c-0.6,0.9-1.1,2-1.4,3.2h-2.6c0.2-2.8,0.3-6.2,0.4-10.2c0.1-4,0.1-9.3,0.1-16h2.6    c0.5,4.6,1.5,8.7,3.1,12.3c1.5,3.6,3.5,6.4,5.9,8.4c2.4,2,5.2,3.1,8.3,3.1c1.4,0,2.7-0.3,3.8-0.8c1.1-0.5,2-1.3,2.7-2.4    c0.7-1,1-2.4,1-4.1c0-3.8-1.2-7.1-3.5-9.7c-2.3-2.6-5.2-5.5-8.7-8.6c-2.6-2.4-5.1-4.8-7.4-7.1c-2.3-2.3-4.2-4.8-5.7-7.6    c-1.5-2.7-2.2-5.8-2.2-9.2c0-3.9,1.2-7.3,3.5-10.1c2.3-2.8,5.3-4.9,9.1-6.5C263.6,155.9,267.6,155.1,271.9,155.1z"></path>			<path class="st6" d="M341.1,155.1c7.7,0,13.7,2.2,18.1,6.7c4.4,4.5,6.6,12,6.6,22.6h-40.9l-0.3-2.5h22.1    c0.1-4.3-0.1-8.2-0.5-11.8c-0.4-3.6-1.1-6.5-2.1-8.7c-1-2.2-2.3-3.3-3.9-3.3c-2.4,0-4.3,1.9-5.8,5.6c-1.5,3.7-2.4,10.1-2.9,19    l0.5,1c-0.1,0.9-0.1,1.7-0.1,2.6c0,0.9,0,1.8,0,2.7c0,6.1,0.8,10.9,2.3,14.3c1.5,3.4,3.4,5.8,5.8,7.1c2.3,1.3,4.6,2,7,2    c1.2,0,2.7-0.2,4.4-0.5c1.7-0.3,3.6-1.2,5.6-2.4c2-1.3,4-3.2,5.9-5.8l2.2,0.8c-1,3.5-2.7,7-5,10.4c-2.3,3.4-5.3,6.3-9,8.5    c-3.7,2.2-8.1,3.3-13.3,3.3c-5.6,0-10.7-1.1-15.2-3.4c-4.6-2.3-8.2-6-10.9-11.2c-2.7-5.2-4.1-12.3-4.1-21.1    c0-8.4,1.5-15.2,4.4-20.5c3-5.3,7-9.2,12.1-11.6C329.1,156.4,334.8,155.1,341.1,155.1z"></path>			<path class="st6" d="M402.5,122.6v90.1c0,3.7,0.5,6.1,1.6,7.5c1.1,1.3,3,2,5.7,2v2.7c-1.7-0.1-4.4-0.2-7.8-0.3    c-3.5-0.1-7.1-0.2-10.7-0.2c-3.7,0-7.4,0.1-11.1,0.2c-3.8,0.1-6.6,0.2-8.5,0.3v-2.7c2.7,0,4.6-0.7,5.7-2c1.1-1.3,1.6-3.8,1.6-7.5    v-74.4c0-3.9-0.5-6.8-1.6-8.7c-1-1.9-3-2.8-5.8-2.8V124c2.8,0.3,5.5,0.4,8.1,0.4c4.4,0,8.4-0.2,12.2-0.5    C395.7,123.6,399.2,123.2,402.5,122.6z"></path>			<path class="st6" d="M480.3,157v2.7c-1.7,0.6-3.2,1.8-4.8,3.6c-1.5,1.8-3,4.8-4.5,9.1l-17.7,52.5c-2.1-0.2-4.2-0.3-6.3-0.3    c-2.1,0-4.3,0.1-6.3,0.3L417.9,167c-1.3-3.3-2.7-5.4-4.1-6.1c-1.4-0.8-2.6-1.2-3.5-1.2V157c3.5,0.3,7.1,0.5,10.9,0.6    c3.7,0.1,7.9,0.2,12.4,0.2c2.7,0,5.6-0.1,8.6-0.3c3-0.2,5.8-0.3,8.4-0.5v2.7c-1.6,0-3,0.1-4.3,0.2c-1.3,0.1-2.2,0.5-2.7,1.2    c-0.6,0.7-0.7,1.9-0.3,3.6l14.6,40.8l-1.7,2.6l7.3-21.8c2-5.9,2.9-10.8,2.6-14.6c-0.3-3.8-1.3-6.7-3.1-8.7c-1.7-2-3.9-3-6.5-3.2    V157c1.2,0.1,2.7,0.2,4.4,0.3c1.7,0.1,3.5,0.2,5.2,0.2c1.7,0,3.1,0.1,4.1,0.1c1.6,0,3.4,0,5.5-0.1    C477.8,157.3,479.3,157.1,480.3,157z"></path>			<path class="st6" d="M499.8,225.8c-4.1,0-7.5-0.8-10.1-2.4c-2.6-1.6-4.5-3.6-5.7-6.1c-1.2-2.5-1.8-5.2-1.8-8c0-3.7,0.8-6.6,2.5-9    c1.7-2.3,3.8-4.2,6.5-5.6c2.7-1.4,5.5-2.6,8.4-3.6c3-1,5.8-1.9,8.4-2.8c2.7-0.9,4.8-2,6.5-3.3c1.7-1.3,2.5-2.9,2.5-4.9v-11.6    c0-1.4-0.2-2.9-0.7-4.6c-0.5-1.7-1.4-3.1-2.7-4.3c-1.3-1.2-3.3-1.8-5.9-1.8c-1.4,0-2.7,0.2-4,0.6c-1.3,0.4-2.4,0.9-3.3,1.6    c3.1,1.1,5.3,2.7,6.7,4.8c1.4,2,2.1,4.3,2.1,6.7c0,3.5-1.2,6.2-3.7,8.2c-2.4,2-5.3,3-8.6,3c-3.5,0-6.2-1.1-8.1-3.3    c-1.9-2.2-2.9-4.9-2.9-8.1c0-2.7,0.7-5,2-6.9c1.4-1.9,3.4-3.6,6.1-5.2c2.6-1.5,5.8-2.6,9.4-3.2c3.7-0.7,7.5-1,11.5-1    c4.3,0,8.2,0.4,11.9,1.2c3.7,0.8,6.8,2.6,9.4,5.3c1.8,1.9,3,4.3,3.5,7.2c0.5,2.9,0.8,6.6,0.8,11.1V215c0,2.2,0.2,3.7,0.5,4.4    c0.3,0.8,0.9,1.2,1.6,1.2c0.7,0,1.4-0.2,2-0.7c0.7-0.4,1.3-0.9,1.9-1.3l1.3,2.2c-1.9,1.7-4.3,2.9-7.1,3.7c-2.8,0.8-5.8,1.2-9,1.2    c-3.8,0-6.7-0.5-8.7-1.4c-2-0.9-3.5-2.1-4.3-3.7c-0.8-1.5-1.3-3.2-1.4-4.9c-1.8,2.9-4.1,5.3-6.9,7.1    C507.8,224.8,504.2,225.8,499.8,225.8z M512.2,215.3c1,0,1.8-0.2,2.6-0.5c0.7-0.3,1.5-0.9,2.3-1.8v-27.6    c-0.6,1.1-1.4,2.2-2.4,3.3c-1,1.1-2,2.2-3.1,3.3c-1,1.1-2,2.4-2.9,3.7c-0.9,1.3-1.7,2.8-2.2,4.5c-0.6,1.7-0.9,3.7-0.9,6    c0,3.3,0.6,5.6,1.9,7C508.7,214.6,510.3,215.3,512.2,215.3z"></path>		</g>	</g></g></svg>